<?xml version="1.0" encoding="UTF-8" standalone="no"?>
<!-- Created with Inkscape (http://www.inkscape.org/) -->

<svg
   xmlns:dc="http://purl.org/dc/elements/1.1/"
   xmlns:cc="http://creativecommons.org/ns#"
   xmlns:rdf="http://www.w3.org/1999/02/22-rdf-syntax-ns#"
   xmlns:svg="http://www.w3.org/2000/svg"
   xmlns="http://www.w3.org/2000/svg"
   xmlns:sodipodi="http://sodipodi.sourceforge.net/DTD/sodipodi-0.dtd"
   xmlns:inkscape="http://www.inkscape.org/namespaces/inkscape"
   width="210mm"
   height="297mm"
   viewBox="0 0 210 297"
   version="1.1"
   id="svg8"
   inkscape:version="0.92.2 (5c3e80d, 2017-08-06)"
   sodipodi:docname="LogoV6.svg"
   inkscape:export-filename="E:\Projects\BusinessCard\LogoV6.png"
   inkscape:export-xdpi="96"
   inkscape:export-ydpi="96">
  <defs
     id="defs2">
    <inkscape:path-effect
       effect="spiro"
       id="path-effect13893"
       is_visible="true" />
    <inkscape:perspective
       sodipodi:type="inkscape:persp3d"
       inkscape:vp_x="0 : 148.5 : 1"
       inkscape:vp_y="0 : 1000 : 0"
       inkscape:vp_z="210 : 148.5 : 1"
       inkscape:persp3d-origin="105 : 99 : 1"
       id="perspective8529" />
  </defs>
  <sodipodi:namedview
     id="base"
     pagecolor="#ffffff"
     bordercolor="#666666"
     borderopacity="1.0"
     inkscape:pageopacity="0.0"
     inkscape:pageshadow="2"
     inkscape:zoom="0.28150644"
     inkscape:cx="729.26424"
     inkscape:cy="166.96205"
     inkscape:document-units="mm"
     inkscape:current-layer="layer1"
     showgrid="false"
     showguides="true"
     inkscape:window-width="1536"
     inkscape:window-height="801"
     inkscape:window-x="-8"
     inkscape:window-y="-8"
     inkscape:window-maximized="1"
     inkscape:snap-nodes="false"
     inkscape:snap-bbox="true"
     inkscape:bbox-paths="true" />
  <metadata
     id="metadata5">
    <rdf:RDF>
      <cc:Work
         rdf:about="">
        <dc:format>image/svg+xml</dc:format>
        <dc:type
           rdf:resource="http://purl.org/dc/dcmitype/StillImage" />
        <dc:title></dc:title>
      </cc:Work>
    </rdf:RDF>
  </metadata>
  <g
     inkscape:label="Layer 1"
     inkscape:groupmode="layer"
     id="layer1">
    <path
       style="font-style:normal;font-variant:normal;font-weight:normal;font-stretch:normal;font-size:medium;line-height:1.25;font-family:'Trebuchet MS';-inkscape-font-specification:'Trebuchet MS';letter-spacing:0px;word-spacing:0px;fill:#000000;fill-opacity:1;stroke:none;stroke-width:11.95175362"
       d="m 397.75,380.66992 -0.002,0.002 c -50.63226,0 -104.54028,11.32247 -145.15821,58.42578 -28.1551,32.65054 -43.96484,79.52338 -43.96484,123.29492 0,45.23947 16.54841,97.44807 46.49219,125.07226 29.94376,27.62412 63.06911,58.00346 147.49804,55.63672 49.70529,-1.39332 119.00625,-35.26226 156.89454,-112.7832 l -79.43138,-31.86447 c -0.25786,5.53843 -5.10838,8.92631 -6.47878,13.72775 7.20363,9.76921 14.34191,19.60428 20.89648,29.67969 15.2985,18.83398 7.44754,48.81313 -16.11328,56.12305 l -0.37695,0.11132 -0.39063,0.0371 c -51.93813,3.92783 -104.59208,2.4317 -156.56835,2.34961 -11.89097,2.13817 -25.21106,-1.29967 -35.0879,-8.66797 -9.98019,-7.44536 -16.40975,-19.60046 -12.55664,-33.46093 l 0.0293,-0.11133 0.0371,-0.11133 c 6.01424,-17.14131 16.3985,-31.78916 27.22852,-45.90039 -6.35229,-15.41133 -8.41332,-33.3978 -5.67969,-52.73242 0,-15.80841 4.46083,-31.11918 10.4414,-42.58789 6.04299,-12.33486 13.46998,-21.55058 21.43164,-28.42969 -1.61231,-3.09642 -2.5489,-6.55336 -2.86914,-10.06055 -0.50107,-5.48772 0.47204,-11.1629 3.0625,-16.0039 2.59046,-4.84101 6.90444,-8.58268 12.45522,-10.24642 l 3.24537,-0.94872 2.37718,-0.43587 c 27.14674,-0.67557 54.95375,-0.83637 82.15803,-0.0376 7.79899,-0.28753 12.0242,1.41894 16.22124,5.58471 4.30201,4.27004 6.54603,10.3061 7.08593,16.45313 0.50421,5.74092 -0.46912,11.67312 -3.27539,16.58007 9.15118,8.04602 18.55141,19.32432 28.44532,35.22071 l 81.35156,-34.22852 C 511.34979,399.35087 441.1231,380.66992 397.75,380.66992 Z m 32.94922,77.38672 c -1.12922,0.0286 -2.36244,0.20696 -3.7168,0.55664 l -0.47851,0.12695 -0.49414,-0.0156 c -28.16886,-0.8397 -56.34342,-0.52117 -84.56836,0.21289 -3.71237,1.01949 -0.73741,4.03356 -2.54166,7.40531 -1.84425,3.44652 -8.75701,10.54666 -4.58703,9.88821 5.85399,-0.92435 3.06095,3.38742 3.87804,5.30008 26.67278,-19.03822 38.87166,-13.61017 56.58013,-13.82547 16.24582,0.84706 26.48001,3.15884 42.63998,15.25813 1.53535,-3.25698 2.84277,-6.14629 2.48735,-10.19329 -0.42274,-4.81312 1.48645,-8.73058 -1.28103,-11.4775 -1.38373,-1.37344 -2.9359,-2.39465 -4.82031,-2.89453 v 0.002 c -0.94222,-0.25002 -1.96844,-0.37231 -3.09766,-0.34375 z M 307.26678,625.17709 c -9.81006,12.96342 -18.49723,23.23866 -23.69187,37.97884 -2.99669,10.96154 3.28551,13.72373 11.58749,19.91713 8.3315,6.21543 15.89744,7.13778 25.58862,5.29504 l -2.18765,-1.7855 2.8439,3.13983 c 52.03135,0.077 100.66263,-0.35007 152.05056,-4.20225 18.63537,-6.02261 24.32901,-18.20641 11.91368,-33.22746 l 0.31904,-2.81852 -0.55342,-0.60615 c -5.60954,-8.62784 -9.50353,-17.1364 -15.75245,-25.63672 -2.40759,5.43444 -4.21933,7.20627 -7.94132,11.5675 1.02143,1.55132 1.53906,3.87558 1.53906,6.99414 0,3.19649 -0.7557,5.71596 -2.26953,7.55664 -1.51383,1.8317 -3.72947,2.74609 -6.64453,2.74609 -2.91506,0 -5.12875,-0.73918 -6.64258,-2.2207 -0.48803,-0.48159 -0.88936,-1.1225 -1.21875,-1.89062 -10.2301,6.60548 -22.27803,11.03162 -34.84375,13.46679 0.16856,0.1452 0.33755,0.28965 0.49219,0.44922 1.73203,1.77186 2.59766,4.86618 2.59765,9.28516 0,3.79989 -0.9023,6.79428 -2.70898,8.98242 -1.80668,2.17746 -4.4507,3.26562 -7.92969,3.26562 -3.47898,0 -6.12105,-0.87944 -7.92773,-2.64062 -1.79175,-1.76119 -2.6875,-5.13445 -2.6875,-10.11914 0,-2.84037 0.6857,-5.23274 2.04101,-7.1875 -2.08038,0.12826 -4.15986,0.21237 -6.23242,0.24023 0.89268,1.80812 1.34571,4.28655 1.34571,7.45899 0,3.79989 -0.9023,6.79428 -2.70899,8.98242 -1.80668,2.17746 -4.4507,3.26562 -7.92969,3.26562 -3.47898,0 -6.12105,-0.87944 -7.92773,-2.64062 -1.79175,-1.76119 -2.6875,-5.13445 -2.6875,-10.11914 0,-3.1948 0.86932,-5.8221 2.58398,-7.89649 -4.28653,-0.53344 -8.46455,-1.28486 -12.48242,-2.25 v 22.58789 h -4.48047 v -17.98046 l -6.67382,2.97656 v -2.99219 c 1.68722,-0.60841 3.47872,-1.44824 5.375,-2.51562 1.58913,-0.88753 2.86115,-1.73511 3.85156,-2.54883 -7.78525,-2.02834 -14.91485,-4.86786 -21.35742,-8.41992 v 0.19335 h -3.75391 v -2.39257 c -3.77465,-2.34492 -7.28617,-4.95189 -10.53125,-7.79493 2.9e-4,0.0523 0.004,0.0996 0.004,0.15235 0,3.19649 -0.75766,5.71596 -2.27149,7.55664 -1.51383,1.8317 -3.72752,2.74609 -6.64258,2.74609 -2.91505,0 -5.1307,-0.73918 -6.64453,-2.2207 -1.50132,-1.48152 -2.25195,-4.32052 -2.25195,-8.51367 0,-2.83734 0.80094,-5.14875 2.40234,-6.93555 1.45072,-1.61867 3.44048,-2.49612 5.95899,-2.64844 -3.0546,-3.81341 -0.40862,-6.02379 -2.72088,-10.36805 z m 4.91877,6.60025 c 0.65058,0.8122 1.32032,1.60825 2.0039,2.39454 0.58448,0.12146 1.10848,0.3196 1.55274,0.61718 0.75066,0.50282 1.29501,1.24396 1.63281,2.22266 0.0845,0.24467 0.15737,0.52363 0.2207,0.83789 -1.17811,-1.19018 -2.31191,-2.41899 -3.40625,-3.67773 -0.40311,-0.0838 -0.83096,-0.13672 -1.30078,-0.13672 -3.5406,0 -5.31055,2.52416 -5.31055,7.57031 0,5.46815 1.62606,8.20117 4.87891,8.20117 1.86414,0 3.23361,-0.60621 4.10938,-1.81836 0.87576,-1.21215 1.31445,-3.33427 1.31445,-6.36914 0,-1.56811 -0.0954,-2.82498 -0.28516,-3.76758 1.29384,1.30704 2.6415,2.56807 4.03516,3.78906 -0.0203,-3.63335 -0.74315,-6.18885 -2.17383,-7.6582 -1.43876,-1.4905 -3.59708,-2.23633 -6.47461,-2.23633 -0.27312,0 -0.53527,0.0154 -0.79687,0.0312 z m 19.97656,17.65821 c 1.22408,0.76043 2.47527,1.49425 3.75391,2.19922 v -19.61915 h -1.12696 c -0.87577,0.80811 -2.11344,1.66071 -3.71484,2.5586 -1.5889,0.89789 -3.09017,1.60344 -4.50391,2.11523 v 2.51758 l 5.5918,-2.50391 z m 25.11133,10.61914 c 0.20848,0.0543 0.41363,0.11286 0.62304,0.16601 0.42957,0.10903 0.87126,0.20253 1.30469,0.30664 v -0.96484 h -1.3457 c -0.17613,0.16188 -0.38132,0.32728 -0.58203,0.49219 z m 14.41015,2.72265 c 1.44186,0.17944 2.89376,0.33554 4.35743,0.46485 0.99229,-0.85188 2.28459,-1.27735 3.87695,-1.27735 1.37368,0 2.50842,0.29875 3.4043,0.89649 0.3486,0.23259 0.64787,0.51964 0.92187,0.83789 1.58297,0.037 3.17015,0.0488 4.76367,0.0273 -0.35076,-0.71046 -0.76337,-1.32635 -1.25195,-1.82617 -1.7171,-1.77186 -4.29237,-2.6582 -7.72656,-2.6582 -3.46406,0 -6.1513,1.06145 -8.0625,3.18554 -0.10094,0.11219 -0.1876,0.23395 -0.28321,0.34961 z m 12.56055,0.92188 c -2.75982,-0.0646 -5.49685,-0.21795 -8.20312,-0.45703 -1.6409,1.40869 -2.46289,3.98256 -2.4629,7.7207 0,6.50038 1.94209,9.75 5.82422,9.75 2.22476,0 3.85911,-0.72114 4.9043,-2.16211 1.04519,-1.44097 1.56836,-3.9645 1.56836,-7.57226 0,-2.48701 -0.20232,-4.31312 -0.60547,-5.47657 -0.24627,-0.71072 -0.59524,-1.30311 -1.02539,-1.80273 z m 10.99609,-0.21289 c 1.7118,-0.10554 3.42272,-0.24732 5.13282,-0.42188 0.95954,-0.72903 2.1695,-1.09961 3.64257,-1.09961 0.86453,0 1.62356,0.13239 2.29883,0.36914 1.69136,-0.25452 3.37264,-0.55797 5.04883,-0.88281 -1.70317,-1.46709 -4.10945,-2.20898 -7.23437,-2.20898 -3.46406,0 -6.1513,1.06145 -8.0625,3.18554 -0.30177,0.33539 -0.57205,0.69208 -0.82618,1.0586 z m 11.07422,-1.15235 c -1.97338,0.29696 -3.95654,0.52787 -5.9414,0.73047 -1.79292,1.3622 -2.69532,3.99096 -2.69532,7.89844 0,6.50038 1.94209,9.75 5.82422,9.75 2.22476,0 3.85911,-0.72114 4.9043,-2.16211 1.04519,-1.44097 1.56836,-3.9645 1.56836,-7.57226 0,-2.48701 -0.20233,-4.31312 -0.60547,-5.47657 -0.40314,-1.16345 -1.05334,-2.04289 -1.94922,-2.64062 -0.33205,-0.22155 -0.70777,-0.38791 -1.10547,-0.52735 z m 39.89258,-14.3496 c 1.0779,-0.69599 2.13599,-1.41739 3.17188,-2.16211 -0.29939,-1.15564 -0.45118,-2.55789 -0.45118,-4.2168 0,-5.04615 1.76995,-7.57031 5.31055,-7.57031 1.15101,0 2.10091,0.25108 2.85156,0.7539 0.75066,0.50282 1.29502,1.24396 1.63282,2.22266 0.062,0.1797 0.11342,0.398 0.16406,0.61523 0.88135,-0.91563 1.73129,-1.86103 2.55664,-2.82812 -0.1961,-0.29783 -0.40297,-0.57635 -0.63672,-0.81641 -1.43876,-1.4905 -3.59708,-2.23633 -6.47461,-2.23633 -2.90255,0 -5.15445,0.89289 -6.75586,2.67969 -1.6014,1.7868 -2.40234,4.09821 -2.40234,6.93555 0,2.83009 0.3493,5.02819 1.0332,6.62305 z m 12.67969,-10.35743 c -2.89376,3.00631 -6.08258,5.73283 -9.50781,8.19532 0.68745,2.65361 2.16171,3.98437 4.42773,3.98437 1.86414,0 3.23361,-0.60621 4.10938,-1.81836 0.87576,-1.21215 1.31445,-3.33427 1.31445,-6.36914 0,-1.70796 -0.11861,-3.02629 -0.34375,-3.99219 z m -65.13281,-5.88086 c -2.90255,0 -5.15446,0.89289 -6.75586,2.67969 -1.60141,1.7868 -2.40235,4.09821 -2.40235,6.93555 0,4.19315 0.75064,7.03215 2.25196,8.51367 1.51382,1.48152 3.72752,2.2207 6.64257,2.2207 2.91506,0 5.13071,-0.91439 6.64454,-2.74609 1.51382,-1.84068 2.26953,-4.36015 2.26953,-7.55664 0,-3.71727 -0.72451,-6.32005 -2.17578,-7.81055 -1.43877,-1.4905 -3.59709,-2.23633 -6.47461,-2.23633 z m 40.38476,0 c -2.90254,0 -5.15445,0.89289 -6.75586,2.67969 -1.6014,1.7868 -2.40234,4.09821 -2.40234,6.93555 0,4.19315 0.75063,7.03215 2.25195,8.51367 1.51383,1.48152 3.72948,2.2207 6.64453,2.2207 2.91506,0 5.12875,-0.91439 6.64258,-2.74609 1.51383,-1.84068 2.27149,-4.36015 2.27149,-7.55664 0,-3.71727 -0.72647,-6.32005 -2.17774,-7.81055 -1.43876,-1.4905 -3.59708,-2.23633 -6.47461,-2.23633 z m -79.15625,0.26953 c -0.87577,0.80811 -2.11539,1.66071 -3.7168,2.5586 -1.58889,0.89789 -3.09016,1.60344 -4.5039,2.11523 v 2.51758 l 5.59375,-2.50391 v 15.125 h 3.75195 v -19.8125 z m 20.19141,0 c -0.87577,0.80811 -2.11344,1.66071 -3.71485,2.5586 -1.58889,0.89789 -3.09016,1.60344 -4.5039,2.11523 v 2.51758 l 5.5918,-2.50391 v 15.125 h 3.7539 v -19.8125 z m 40.38672,0 c -0.87577,0.80811 -2.1154,1.66071 -3.7168,2.5586 -1.58889,0.89789 -3.09017,1.60344 -4.50391,2.11523 v 2.51758 l 5.59375,-2.50391 v 15.125 h 3.75196 v -19.8125 z m -21.90039,2.01954 c 1.15101,0 2.1009,0.25108 2.85156,0.7539 0.75066,0.50282 1.29501,1.24396 1.63281,2.22266 0.3378,0.9787 0.50781,2.51534 0.50781,4.60742 0,3.03487 -0.43868,5.15699 -1.31445,6.36914 -0.87577,1.21215 -2.24524,1.81836 -4.10937,1.81836 -3.25286,0 -4.87891,-2.73302 -4.87891,-8.20117 0,-5.04615 1.76994,-7.57031 5.31055,-7.57031 z m 40.38476,0 c 1.15101,0 2.10286,0.25108 2.85352,0.7539 0.75066,0.50282 1.29501,1.24396 1.63281,2.22266 0.3378,0.9787 0.50586,2.51534 0.50586,4.60742 0,3.03487 -0.43869,5.15699 -1.31445,6.36914 -0.87577,1.21215 -2.24524,1.81836 -4.10938,1.81836 -3.25285,0 -4.8789,-2.73302 -4.8789,-8.20117 0,-5.04615 1.76994,-7.57031 5.31054,-7.57031 z m -126.3125,25.20703 c 3.43419,0 6.00947,0.88634 7.72656,2.6582 1.73203,1.77186 2.59766,4.86618 2.59766,9.28516 0,3.79989 -0.9023,6.79428 -2.70898,8.98242 -1.80669,2.17746 -4.4507,3.26562 -7.92969,3.26562 -3.47899,0 -6.12105,-0.87944 -7.92774,-2.64062 -1.79175,-1.76119 -2.6875,-5.13445 -2.6875,-10.11914 0,-3.37294 0.95599,-6.122 2.86719,-8.2461 1.9112,-2.12409 4.59845,-3.18554 8.0625,-3.18554 z m 120.49414,0 c 3.4342,0 6.01142,0.88634 7.72852,2.6582 1.73203,1.77186 2.59765,4.86618 2.59765,9.28516 0,3.79989 -0.90425,6.79428 -2.71093,8.98242 -1.80669,2.17746 -4.44875,3.26562 -7.92774,3.26562 -3.47898,0 -6.12105,-0.87944 -7.92773,-2.64062 -1.79175,-1.76119 -2.68946,-5.13445 -2.68945,-10.11914 0,-3.37294 0.95598,-6.122 2.86718,-8.2461 1.91121,-2.12409 4.59845,-3.18554 8.0625,-3.18554 z m 24.09961,0 c 3.43419,0 6.00947,0.88634 7.72656,2.6582 1.73203,1.77186 2.59961,4.86618 2.59961,9.28516 0,3.79989 -0.90425,6.79428 -2.71093,8.98242 -1.80669,2.17746 -4.44875,3.26562 -7.92774,3.26562 -3.47898,0 -6.123,-0.87944 -7.92969,-2.64062 -1.79175,-1.76119 -2.6875,-5.13445 -2.6875,-10.11914 0,-3.37294 0.95599,-6.122 2.86719,-8.2461 1.9112,-2.12409 4.59845,-3.18554 8.0625,-3.18554 z m -118.56836,0.32031 h 1.34375 v 23.55273 h -4.48047 v -17.98046 l -6.67382,2.97656 v -2.99219 c 1.68723,-0.60841 3.47872,-1.44824 5.375,-2.51562 1.9112,-1.06739 3.39035,-2.08037 4.43554,-3.04102 z m 144.59375,0 h 1.34375 v 23.55273 h -4.47851 v -17.98046 l -6.67578,2.97656 v -2.99219 c 1.68723,-0.60841 3.48068,-1.44824 5.37695,-2.51562 1.9112,-1.06739 3.3884,-2.08037 4.43359,-3.04102 z m -170.73047,2.40234 c -4.22555,0 -6.33984,2.99935 -6.33984,8.99805 0,6.50038 1.94209,9.75 5.82422,9.75 2.22476,0 3.85911,-0.72114 4.9043,-2.16211 1.04518,-1.44097 1.56835,-3.9645 1.56835,-7.57226 0,-2.48701 -0.20232,-4.31312 -0.60546,-5.47657 -0.40315,-1.16345 -1.05139,-2.04289 -1.94727,-2.64062 -0.89588,-0.59774 -2.03062,-0.89649 -3.4043,-0.89649 z m 120.49414,0 c -4.22555,0 -6.33789,2.99935 -6.33789,8.99805 0,6.50038 1.94014,9.75 5.82227,9.75 2.22476,0 3.86106,-0.72114 4.90625,-2.16211 1.04519,-1.44097 1.56641,-3.9645 1.56641,-7.57226 0,-2.48701 -0.20038,-4.31312 -0.60352,-5.47657 -0.40314,-1.16345 -1.05334,-2.04289 -1.94922,-2.64062 -0.89588,-0.59774 -2.03062,-0.89649 -3.4043,-0.89649 z m 24.09961,0 c -4.22555,0 -6.33789,2.99935 -6.33789,8.99805 0,6.50038 1.94014,9.75 5.82227,9.75 2.22476,0 3.85911,-0.72114 4.9043,-2.16211 1.04518,-1.44097 1.56836,-3.9645 1.56836,-7.57226 0,-2.48701 -0.20038,-4.31312 -0.60352,-5.47657 -0.40314,-1.16345 -1.05334,-2.04289 -1.94922,-2.64062 -0.89588,-0.59774 -2.03062,-0.89649 -3.4043,-0.89649 z"
       id="path8502"
       inkscape:connector-curvature="0"
       transform="scale(0.26458333)"
       sodipodi:nodetypes="ccsssscccccccccccccccccsccccccccccccccccscccccccccccscccccccccscsccccccscsccscscsccccccccccccccscscsccccccccccssscscccscccccccccccccccccccsccccsccccccsssccccsccsccccsssssccccsscccccscscccscscscscscscsscscscscscccccccccccccccccccccccccccsssssssssssscsssscscscscsscscscccsscscscscsccccccccczccccccczssscsccssssssscsssscsscs" />
    <text
       xml:space="preserve"
       style="font-style:normal;font-variant:normal;font-weight:normal;font-stretch:normal;font-size:10.58333302px;line-height:1.25;font-family:Alfredo;-inkscape-font-specification:Alfredo;letter-spacing:0px;word-spacing:0px;fill:#000000;fill-opacity:1;stroke:none;stroke-width:0.26458332"
       x="42.871384"
       y="98.859398"
       id="text8449"><tspan
         sodipodi:role="line"
         id="tspan8447"
         x="42.871384"
         y="108.59067"
         style="font-style:normal;font-variant:normal;font-weight:normal;font-stretch:normal;font-family:Alfredo;-inkscape-font-specification:Alfredo;stroke-width:0.26458332" /></text>
    <text
       xml:space="preserve"
       style="font-style:normal;font-variant:normal;font-weight:normal;font-stretch:normal;font-size:10.58333302px;line-height:1.25;font-family:Alfredo;-inkscape-font-specification:Alfredo;letter-spacing:0px;word-spacing:0px;fill:#000000;fill-opacity:1;stroke:none;stroke-width:0.26458332"
       x="55.182133"
       y="95.533905"
       id="text8453"><tspan
         sodipodi:role="line"
         id="tspan8451"
         x="55.182133"
         y="105.26517"
         style="font-style:normal;font-variant:normal;font-weight:normal;font-stretch:normal;font-family:Alfredo;-inkscape-font-specification:Alfredo;stroke-width:0.26458332" /></text>
    <text
       xml:space="preserve"
       style="font-style:normal;font-variant:normal;font-weight:normal;font-stretch:normal;font-size:10.58333302px;line-height:1.25;font-family:'Times New Roman';-inkscape-font-specification:'Times New Roman, ';letter-spacing:0px;word-spacing:0px;fill:#000000;fill-opacity:1;stroke:none;stroke-width:0.26458332"
       x="38.919586"
       y="113.29639"
       id="text8461"><tspan
         sodipodi:role="line"
         id="tspan8459"
         x="38.919586"
         y="122.69038"
         style="font-style:normal;font-variant:normal;font-weight:normal;font-stretch:normal;font-family:'Times New Roman';-inkscape-font-specification:'Times New Roman, ';stroke-width:0.26458332" /><tspan
         sodipodi:role="line"
         x="38.919586"
         y="135.91954"
         style="font-style:normal;font-variant:normal;font-weight:normal;font-stretch:normal;font-family:'Times New Roman';-inkscape-font-specification:'Times New Roman, ';stroke-width:0.26458332"
         id="tspan8463" /><tspan
         sodipodi:role="line"
         x="38.919586"
         y="149.14871"
         style="font-style:normal;font-variant:normal;font-weight:normal;font-stretch:normal;font-family:'Times New Roman';-inkscape-font-specification:'Times New Roman, ';stroke-width:0.26458332"
         id="tspan8465" /><tspan
         sodipodi:role="line"
         x="38.919586"
         y="162.37787"
         style="font-style:normal;font-variant:normal;font-weight:normal;font-stretch:normal;font-family:'Times New Roman';-inkscape-font-specification:'Times New Roman, ';stroke-width:0.26458332"
         id="tspan8467" /></text>
    <text
       xml:space="preserve"
       style="font-style:normal;font-variant:normal;font-weight:normal;font-stretch:normal;font-size:10.58333302px;line-height:1.25;font-family:'Script MT Bold';-inkscape-font-specification:'Script MT Bold, ';letter-spacing:0px;word-spacing:0px;fill:#000000;fill-opacity:1;stroke:none;stroke-width:0.26458332"
       x="66.944847"
       y="52.903934"
       id="text8471"><tspan
         sodipodi:role="line"
         id="tspan8469"
         x="66.944847"
         y="62.0047"
         style="stroke-width:0.26458332" /></text>
    <flowRoot
       xml:space="preserve"
       id="flowRoot8484"
       style="font-style:normal;font-variant:normal;font-weight:normal;font-stretch:normal;font-size:40px;line-height:1.25;font-family:'Script MT Bold';-inkscape-font-specification:'Script MT Bold, ';letter-spacing:0px;word-spacing:0px;fill:#000000;fill-opacity:1;stroke:none"
       transform="scale(0.26458333)"><flowRegion
         id="flowRegion8486"><rect
           id="rect8488"
           width="192.1519"
           height="47.739601"
           x="426.07596"
           y="303.78552" /></flowRegion><flowPara
         id="flowPara8490" /></flowRoot>    <text
       xml:space="preserve"
       style="font-style:normal;font-variant:normal;font-weight:normal;font-stretch:normal;font-size:10.58333302px;line-height:1.25;font-family:'Script MT Bold';-inkscape-font-specification:'Script MT Bold, ';letter-spacing:0px;word-spacing:0px;fill:#000000;fill-opacity:1;stroke:none;stroke-width:0.26458332"
       x="34.419758"
       y="83.218582"
       id="text8494"><tspan
         sodipodi:role="line"
         id="tspan8492"
         x="34.419758"
         y="92.319351"
         style="stroke-width:0.26458332" /></text>
    <text
       xml:space="preserve"
       style="font-style:normal;font-variant:normal;font-weight:normal;font-stretch:normal;font-size:10.58333302px;line-height:1.25;font-family:'Trebuchet MS';-inkscape-font-specification:'Trebuchet MS';letter-spacing:0px;word-spacing:0px;fill:#000000;fill-opacity:1;stroke:none;stroke-width:0.26458332"
       x="19.968754"
       y="100.21114"
       id="text8528"><tspan
         sodipodi:role="line"
         id="tspan8526"
         x="19.968754"
         y="109.81429"
         style="stroke-width:0.26458332" /></text>
    <g
       aria-label="01000100"
       transform="scale(1.1285166,0.88611899)"
       style="font-style:normal;font-variant:normal;font-weight:normal;font-stretch:normal;font-size:5.74844742px;line-height:1.25;font-family:'Trebuchet MS';-inkscape-font-specification:'Trebuchet MS';letter-spacing:0px;word-spacing:0px;fill:#000007;fill-opacity:1;stroke:none;stroke-width:0.14371118"
       id="text8532">
      <path
         d="m 78.360372,179.08447 q 0,-0.88697 0.359278,-1.44554 0.359278,-0.55856 1.010469,-0.55856 0.645578,0 0.968366,0.46594 0.325596,0.46594 0.325596,1.62798 0,0.99924 -0.33963,1.57464 -0.33963,0.5726 -0.993628,0.5726 -0.653998,0 -0.993628,-0.46313 -0.336823,-0.46313 -0.336823,-1.77393 z m 0.561372,0.0505 q 0,1.70938 0.729783,1.70938 0.418222,0 0.614702,-0.37893 0.19648,-0.37892 0.19648,-1.32764 0,-0.654 -0.07579,-0.95995 -0.07578,-0.30595 -0.244197,-0.46313 -0.168411,-0.15718 -0.426642,-0.15718 -0.794341,0 -0.794341,1.57745 z"
         style="fill:#000007;fill-opacity:1;stroke-width:0.14371118"
         id="path9432"
         inkscape:connector-curvature="0" />
      <path
         d="m 82.598729,181.2654 v -3.15211 l -0.836444,0.52208 v -0.52488 q 0.317175,-0.15999 0.673646,-0.44068 0.359278,-0.28069 0.555758,-0.5333 h 0.168412 v 4.12889 z"
         style="fill:#000007;fill-opacity:1;stroke-width:0.14371118"
         id="path9434"
         inkscape:connector-curvature="0" />
      <path
         d="m 84.400733,179.08447 q 0,-0.88697 0.359278,-1.44554 0.359278,-0.55856 1.010469,-0.55856 0.645577,0 0.968366,0.46594 0.325596,0.46594 0.325596,1.62798 0,0.99924 -0.33963,1.57464 -0.33963,0.5726 -0.993628,0.5726 -0.653998,0 -0.993628,-0.46313 -0.336823,-0.46313 -0.336823,-1.77393 z m 0.561371,0.0505 q 0,1.70938 0.729784,1.70938 0.418222,0 0.614702,-0.37893 0.19648,-0.37892 0.19648,-1.32764 0,-0.654 -0.07578,-0.95995 -0.07578,-0.30595 -0.244197,-0.46313 -0.168411,-0.15718 -0.426642,-0.15718 -0.794342,0 -0.794342,1.57745 z"
         style="fill:#000007;fill-opacity:1;stroke-width:0.14371118"
         id="path9436"
         inkscape:connector-curvature="0" />
      <path
         d="m 87.420913,179.08447 q 0,-0.88697 0.359278,-1.44554 0.359278,-0.55856 1.010469,-0.55856 0.645578,0 0.968366,0.46594 0.325596,0.46594 0.325596,1.62798 0,0.99924 -0.33963,1.57464 -0.33963,0.5726 -0.993628,0.5726 -0.653998,0 -0.993628,-0.46313 -0.336823,-0.46313 -0.336823,-1.77393 z m 0.561372,0.0505 q 0,1.70938 0.729783,1.70938 0.418222,0 0.614702,-0.37893 0.19648,-0.37892 0.19648,-1.32764 0,-0.654 -0.07579,-0.95995 -0.07578,-0.30595 -0.244197,-0.46313 -0.168411,-0.15718 -0.426642,-0.15718 -0.794341,0 -0.794341,1.57745 z"
         style="fill:#000007;fill-opacity:1;stroke-width:0.14371118"
         id="path9438"
         inkscape:connector-curvature="0" />
      <path
         d="m 90.441094,179.08447 q 0,-0.88697 0.359278,-1.44554 0.359277,-0.55856 1.010469,-0.55856 0.645577,0 0.968366,0.46594 0.325596,0.46594 0.325596,1.62798 0,0.99924 -0.33963,1.57464 -0.33963,0.5726 -0.993628,0.5726 -0.653998,0 -0.993628,-0.46313 -0.336823,-0.46313 -0.336823,-1.77393 z m 0.561371,0.0505 q 0,1.70938 0.729784,1.70938 0.418222,0 0.614702,-0.37893 0.19648,-0.37892 0.19648,-1.32764 0,-0.654 -0.07578,-0.95995 -0.07578,-0.30595 -0.244197,-0.46313 -0.168411,-0.15718 -0.426642,-0.15718 -0.794342,0 -0.794342,1.57745 z"
         style="fill:#000007;fill-opacity:1;stroke-width:0.14371118"
         id="path9440"
         inkscape:connector-curvature="0" />
      <path
         d="m 94.679451,181.2654 v -3.15211 l -0.836444,0.52208 v -0.52488 q 0.317175,-0.15999 0.673646,-0.44068 0.359278,-0.28069 0.555758,-0.5333 h 0.168412 v 4.12889 z"
         style="fill:#000007;fill-opacity:1;stroke-width:0.14371118"
         id="path9442"
         inkscape:connector-curvature="0" />
      <path
         d="m 96.481454,179.08447 q 0,-0.88697 0.359278,-1.44554 0.359278,-0.55856 1.010469,-0.55856 0.645578,0 0.968367,0.46594 0.325595,0.46594 0.325595,1.62798 0,0.99924 -0.33963,1.57464 -0.33963,0.5726 -0.993628,0.5726 -0.653998,0 -0.993628,-0.46313 -0.336823,-0.46313 -0.336823,-1.77393 z m 0.561372,0.0505 q 0,1.70938 0.729783,1.70938 0.418222,0 0.614702,-0.37893 0.19648,-0.37892 0.19648,-1.32764 0,-0.654 -0.07579,-0.95995 -0.07578,-0.30595 -0.244196,-0.46313 -0.168412,-0.15718 -0.426643,-0.15718 -0.794341,0 -0.794341,1.57745 z"
         style="fill:#000007;fill-opacity:1;stroke-width:0.14371118"
         id="path9444"
         inkscape:connector-curvature="0" />
      <path
         d="m 99.501636,179.08447 q 0,-0.88697 0.359278,-1.44554 0.359276,-0.55856 1.010466,-0.55856 0.64558,0 0.96837,0.46594 0.32559,0.46594 0.32559,1.62798 0,0.99924 -0.33963,1.57464 -0.33962,0.5726 -0.99362,0.5726 -0.654,0 -0.993631,-0.46313 -0.336823,-0.46313 -0.336823,-1.77393 z m 0.561374,0.0505 q 0,1.70938 0.72978,1.70938 0.41822,0 0.6147,-0.37893 0.19648,-0.37892 0.19648,-1.32764 0,-0.654 -0.0758,-0.95995 -0.0758,-0.30595 -0.2442,-0.46313 -0.16841,-0.15718 -0.42664,-0.15718 -0.79434,0 -0.79434,1.57745 z"
         style="fill:#000007;fill-opacity:1;stroke-width:0.14371118"
         id="path9446"
         inkscape:connector-curvature="0" />
    </g>
    <g
       aria-label="01100001"
       transform="scale(1.2556322,0.79641157)"
       style="font-style:normal;font-variant:normal;font-weight:normal;font-stretch:normal;font-size:6.74191475px;line-height:1.25;font-family:'Trebuchet MS';-inkscape-font-specification:'Trebuchet MS';letter-spacing:0px;word-spacing:0px;fill:#000000;fill-opacity:1;stroke:none;stroke-width:0.16854788"
       id="text8536">
      <path
         d="m 67.792243,205.79811 q 0,-1.04025 0.42137,-1.69535 0.421369,-0.6551 1.185102,-0.6551 0.757149,0 1.135723,0.54646 0.381866,0.54647 0.381866,1.90933 0,1.17194 -0.398326,1.84679 -0.398326,0.67156 -1.16535,0.67156 -0.767025,0 -1.165351,-0.54318 -0.395034,-0.54317 -0.395034,-2.08051 z m 0.65839,0.0593 q 0,2.00479 0.855907,2.00479 0.490501,0 0.720937,-0.44441 0.230437,-0.44441 0.230437,-1.55709 0,-0.76703 -0.08888,-1.12585 -0.08888,-0.35882 -0.286399,-0.54317 -0.197517,-0.18435 -0.500377,-0.18435 -0.931622,0 -0.931622,1.85008 z"
         style="fill:#000000;fill-opacity:1;stroke-width:0.16854788"
         id="path9415"
         inkscape:connector-curvature="0" />
      <path
         d="m 72.763088,208.35596 v -3.69686 l -0.981001,0.6123 v -0.6156 q 0.371991,-0.18764 0.790068,-0.51683 0.42137,-0.3292 0.651807,-0.62547 h 0.197517 v 4.84246 z"
         style="fill:#000000;fill-opacity:1;stroke-width:0.16854788"
         id="path9417"
         inkscape:connector-curvature="0" />
      <path
         d="m 76.305227,208.35596 v -3.69686 l -0.981001,0.6123 v -0.6156 q 0.37199,-0.18764 0.790068,-0.51683 0.42137,-0.3292 0.651806,-0.62547 h 0.197517 v 4.84246 z"
         style="fill:#000000;fill-opacity:1;stroke-width:0.16854788"
         id="path9419"
         inkscape:connector-curvature="0" />
      <path
         d="m 78.418659,205.79811 q 0,-1.04025 0.42137,-1.69535 0.42137,-0.6551 1.185102,-0.6551 0.757149,0 1.135723,0.54646 0.381866,0.54647 0.381866,1.90933 0,1.17194 -0.398326,1.84679 -0.398326,0.67156 -1.16535,0.67156 -0.767025,0 -1.165351,-0.54318 -0.395034,-0.54317 -0.395034,-2.08051 z m 0.65839,0.0593 q 0,2.00479 0.855908,2.00479 0.4905,0 0.720937,-0.44441 0.230436,-0.44441 0.230436,-1.55709 0,-0.76703 -0.08888,-1.12585 -0.08888,-0.35882 -0.2864,-0.54317 -0.197517,-0.18435 -0.500377,-0.18435 -0.931622,0 -0.931622,1.85008 z"
         style="fill:#000000;fill-opacity:1;stroke-width:0.16854788"
         id="path9421"
         inkscape:connector-curvature="0" />
      <path
         d="m 81.960798,205.79811 q 0,-1.04025 0.42137,-1.69535 0.42137,-0.6551 1.185102,-0.6551 0.757149,0 1.135723,0.54646 0.381866,0.54647 0.381866,1.90933 0,1.17194 -0.398326,1.84679 -0.398326,0.67156 -1.16535,0.67156 -0.767025,0 -1.165351,-0.54318 -0.395034,-0.54317 -0.395034,-2.08051 z m 0.65839,0.0593 q 0,2.00479 0.855908,2.00479 0.4905,0 0.720937,-0.44441 0.230436,-0.44441 0.230436,-1.55709 0,-0.76703 -0.08888,-1.12585 -0.08888,-0.35882 -0.2864,-0.54317 -0.197517,-0.18435 -0.500377,-0.18435 -0.931622,0 -0.931622,1.85008 z"
         style="fill:#000000;fill-opacity:1;stroke-width:0.16854788"
         id="path9423"
         inkscape:connector-curvature="0" />
      <path
         d="m 85.502936,205.79811 q 0,-1.04025 0.42137,-1.69535 0.42137,-0.6551 1.185102,-0.6551 0.757149,0 1.135723,0.54646 0.381867,0.54647 0.381867,1.90933 0,1.17194 -0.398327,1.84679 -0.398326,0.67156 -1.16535,0.67156 -0.767024,0 -1.165351,-0.54318 -0.395034,-0.54317 -0.395034,-2.08051 z m 0.658391,0.0593 q 0,2.00479 0.855907,2.00479 0.4905,0 0.720937,-0.44441 0.230436,-0.44441 0.230436,-1.55709 0,-0.76703 -0.08888,-1.12585 -0.08888,-0.35882 -0.2864,-0.54317 -0.197517,-0.18435 -0.500376,-0.18435 -0.931622,0 -0.931622,1.85008 z"
         style="fill:#000000;fill-opacity:1;stroke-width:0.16854788"
         id="path9425"
         inkscape:connector-curvature="0" />
      <path
         d="m 89.045075,205.79811 q 0,-1.04025 0.42137,-1.69535 0.42137,-0.6551 1.185102,-0.6551 0.757149,0 1.135723,0.54646 0.381867,0.54647 0.381867,1.90933 0,1.17194 -0.398326,1.84679 -0.398326,0.67156 -1.165351,0.67156 -0.767024,0 -1.16535,-0.54318 -0.395035,-0.54317 -0.395035,-2.08051 z m 0.658391,0.0593 q 0,2.00479 0.855907,2.00479 0.4905,0 0.720937,-0.44441 0.230436,-0.44441 0.230436,-1.55709 0,-0.76703 -0.08888,-1.12585 -0.08888,-0.35882 -0.2864,-0.54317 -0.197517,-0.18435 -0.500376,-0.18435 -0.931622,0 -0.931622,1.85008 z"
         style="fill:#000000;fill-opacity:1;stroke-width:0.16854788"
         id="path9427"
         inkscape:connector-curvature="0" />
      <path
         d="m 94.015921,208.35596 v -3.69686 l -0.981001,0.6123 v -0.6156 q 0.37199,-0.18764 0.790068,-0.51683 0.42137,-0.3292 0.651806,-0.62547 h 0.197517 v 4.84246 z"
         style="fill:#000000;fill-opacity:1;stroke-width:0.16854788"
         id="path9429"
         inkscape:connector-curvature="0" />
    </g>
    <path
       style="fill:none;fill-opacity:1;stroke:#000000;stroke-width:1.84932327;stroke-linecap:butt;stroke-linejoin:miter;stroke-miterlimit:4;stroke-dasharray:none;stroke-opacity:1"
       d="m 102.15111,121.64769 -12.032801,0.22283 c -0.81475,0.68412 -1.324591,1.06331 -1.52949,3.11961 -0.0387,1.10762 -0.0775,2.26608 0.95092,3.01797 1.56087,0.5454 3.702209,0.44443 3.971839,2.11102 l 0.172001,16.26263 -17.143526,24.52624 c -1.081782,1.27253 -2.36908,5.05418 -1.115648,7.16006 1.789439,2.32559 3.078967,2.89828 4.332337,3.35363 2.930216,0.92795 42.973438,0.13819 44.790328,0.12747 2.63585,-0.50998 4.14264,-2.41945 4.96678,-3.74041 0.79458,-1.26537 0.62893,-4.61822 -1.54068,-7.47007 l -16.7486,-23.61291 c 0.0208,-5.83396 -0.11071,-11.84579 0.0114,-16.3584 0,0 0.13559,-1.8736 3.5985,-2.09928 1.53228,-0.52163 1.13336,-2.16134 1.29347,-3.54693 0,0 0.31608,-2.16072 -1.50441,-2.87349 z"
       id="path8524-2"
       inkscape:connector-curvature="0"
       sodipodi:nodetypes="cccccccccccccccccc" />
  </g>
</svg>
